<svg width="76" height="75" viewBox="0 0 76 75" fill="none" xmlns="http://www.w3.org/2000/svg">
<g clip-path="url(#clip0)">
<path d="M51.628 68.4996L51.799 69.0125H52.3396H59.5459C60.3459 69.0125 60.9932 69.6597 60.9932 70.4597C60.9932 71.2597 60.3459 71.907 59.5459 71.907H15.6006C14.8006 71.907 14.1533 71.2597 14.1533 70.4597C14.1533 69.6597 14.8006 69.0125 15.6006 69.0125H22.8069H23.3475L23.5184 68.4996L24.8123 64.6179H50.3341L51.628 68.4996Z" stroke="#E9AA09" stroke-width="1.5"/>
<path d="M58.0986 17.7253C58.0986 16.9271 58.7476 16.2781 59.5459 16.2781C60.3442 16.2781 60.9932 16.9271 60.9932 17.7253C60.9932 18.5236 60.3442 19.1726 59.5459 19.1726C58.7476 19.1726 58.0986 18.5236 58.0986 17.7253Z" stroke="#E9AA09" stroke-width="1.5"/>
<path d="M12.6533 45.5398V39.698C12.6533 38.0696 13.9722 36.7507 15.6006 36.7507H18.4734C18.5992 36.4239 18.7335 36.1001 18.8765 35.7791L16.8447 33.7458C15.6935 32.5946 15.6935 30.7293 16.8447 29.5781L23.0588 23.364C24.21 22.2128 26.0753 22.2128 27.2265 23.364L29.2598 25.3972C29.5804 25.254 29.9042 25.119 30.2314 24.9926V22.1199C30.2314 20.4914 31.5503 19.1726 33.1787 19.1726H41.9678C43.5962 19.1726 44.915 20.4914 44.915 22.1199V24.993C45.2422 25.1194 45.566 25.2543 45.8865 25.3974L47.9199 23.364L47.9201 23.3638C49.0713 22.2134 50.9363 22.2134 52.0875 23.3638L52.0877 23.364L58.3018 29.5781C59.4528 30.7291 59.4532 32.5948 58.302 33.7456L12.6533 45.5398ZM12.6533 45.5398H0.823242V8.93628C0.823242 5.71585 3.44461 3.09448 6.66504 3.09448H68.335C71.5769 3.09448 74.3232 5.73705 74.3232 8.93628V45.5398H62.4932V39.698C62.4932 38.0696 61.1743 36.7507 59.5459 36.7507H56.6731C56.5472 36.4239 56.4129 36.1002 56.2699 35.7792L58.3016 33.746L12.6533 45.5398ZM52.2041 17.7253C52.2041 21.7742 55.497 25.0671 59.5459 25.0671C63.5948 25.0671 66.8877 21.7742 66.8877 17.7253C66.8877 13.6765 63.5948 10.3835 59.5459 10.3835C55.497 10.3835 52.2041 13.6765 52.2041 17.7253Z" stroke="#E9AA09" stroke-width="1.5"/>
<path d="M31.9535 45.5398C31.8142 45.0538 31.7314 44.5735 31.7314 44.0925C31.7314 40.8721 34.3523 38.2507 37.5732 38.2507C40.7937 38.2507 43.415 40.8721 43.415 44.0925C43.415 44.5735 43.3323 45.0538 43.193 45.5398H31.9535Z" stroke="#E9AA09" stroke-width="1.5"/>
<path d="M23.4719 40.435L23.4721 40.434C23.8044 39.1411 24.324 37.8887 25.0184 36.7124L25.0185 36.7122C25.7011 35.5551 25.5136 34.0818 24.5643 33.1317C24.5643 33.1317 24.5643 33.1317 24.5643 33.1317L23.096 31.6622L25.1427 29.6155L26.612 31.0849C26.6121 31.0849 26.6121 31.085 26.6122 31.0851C27.5619 32.0353 29.0406 32.2288 30.1973 31.5365C31.3717 30.8445 32.6212 30.3233 33.9144 29.9915L33.9157 29.9911C35.2167 29.6549 36.126 28.4807 36.126 27.1364V25.0671H39.0205V27.1364C39.0205 28.4807 39.9297 29.6549 41.2308 29.9911L41.232 29.9915C42.5255 30.3234 43.7752 30.8446 44.9497 31.5368C46.1089 32.2279 47.5857 32.0364 48.5348 31.0845C48.5349 31.0844 48.535 31.0843 48.5351 31.0842L50.0038 29.6155L52.0504 31.6622L50.5822 33.1317C49.6329 34.0817 49.4454 35.5551 50.128 36.7122L50.1281 36.7124C50.8225 37.8887 51.3421 39.1411 51.6744 40.434L51.6746 40.435C52.0108 41.736 53.185 42.6453 54.5294 42.6453H56.5986V45.5398H49.1763C49.2531 45.0762 49.3096 44.5906 49.3096 44.0925C49.3096 37.621 44.0448 32.3562 37.5732 32.3562C31.1017 32.3562 25.8369 37.621 25.8369 44.0925C25.8369 44.5906 25.8934 45.0762 25.9702 45.5398H18.5479V42.6453H20.6171C21.9614 42.6453 23.1356 41.736 23.4719 40.435Z" stroke="#E9AA09" stroke-width="1.5"/>
<path d="M6.66504 58.7234C3.44461 58.7234 0.823242 56.102 0.823242 52.8816V51.4343H74.3232V52.8816C74.3232 56.0808 71.5769 58.7234 68.335 58.7234H6.66504Z" stroke="#E9AA09" stroke-width="1.5"/>
</g>
<defs>
<clipPath id="clip0">
<rect x="0.0732422" y="0.000732422" width="75" height="75" fill="white"/>
</clipPath>
</defs>
</svg>
