<svg width="23" height="24" viewBox="0 0 23 24" fill="none" xmlns="http://www.w3.org/2000/svg">
<g clip-path="url(#clip0)">
<path d="M13.3542 22.8515C13.2583 22.8671 13.1622 22.8815 13.0657 22.8946C13.1622 22.8815 13.2583 22.8671 13.3542 22.8515Z" fill="#DFDADC" fill-opacity="0.5"/>
<path d="M13.5842 22.8122C13.5384 22.8206 13.4926 22.8283 13.4468 22.8362C13.4926 22.8283 13.5384 22.8206 13.5842 22.8122Z" fill="#DFDADC" fill-opacity="0.5"/>
<path d="M12.8088 22.9266C12.6967 22.9392 12.5839 22.9504 12.4707 22.9599C12.5839 22.9504 12.6967 22.9392 12.8088 22.9266Z" fill="#DFDADC" fill-opacity="0.5"/>
<path d="M13.0298 22.8996C12.9759 22.9068 12.9217 22.9134 12.8677 22.9197C12.9217 22.9134 12.9759 22.9068 13.0298 22.8996Z" fill="#DFDADC" fill-opacity="0.5"/>
<path d="M13.8973 22.7501C13.8569 22.7587 13.8164 22.7673 13.7759 22.7755C13.8164 22.7673 13.8569 22.7587 13.8973 22.7501Z" fill="#DFDADC" fill-opacity="0.5"/>
<path d="M14.6743 22.557C14.6417 22.5663 14.6091 22.5751 14.5764 22.5842C14.6091 22.5751 14.6417 22.5663 14.6743 22.557Z" fill="#DFDADC" fill-opacity="0.5"/>
<path d="M14.4395 22.6212C14.404 22.6305 14.3684 22.64 14.3328 22.649C14.3684 22.64 14.404 22.6307 14.4395 22.6212Z" fill="#DFDADC" fill-opacity="0.5"/>
<path d="M14.1319 22.6981C14.0944 22.7069 14.0565 22.7151 14.0186 22.7236C14.0565 22.7151 14.0944 22.7069 14.1319 22.6981Z" fill="#DFDADC" fill-opacity="0.5"/>
<path d="M12.4669 22.9603C12.4064 22.9654 12.3459 22.9699 12.2852 22.974C12.3459 22.9699 12.4064 22.9654 12.4669 22.9603Z" fill="#DFDADC" fill-opacity="0.5"/>
<path d="M23 11.5012C23 5.15086 17.8503 0.00115967 11.5 0.00115967C5.1497 0.00115967 0 5.15086 0 11.5012C0 17.8515 5.1497 23.0012 11.5 23.0012C11.5676 23.0012 11.6348 22.9998 11.7021 22.9985V14.0463H9.23145V11.1669H11.7021V9.048C11.7021 6.59064 13.2023 5.25316 15.3943 5.25316C16.444 5.25316 17.3463 5.33142 17.6094 5.36634V7.93461H16.0978C14.9053 7.93461 14.6744 8.5014 14.6744 9.33298V11.1669H17.5258L17.1542 14.0463H14.6744V22.5569C19.4812 21.1788 23 16.7504 23 11.5012Z" fill="#DFDADC" fill-opacity="0.5"/>
<path d="M12.2598 22.9755C12.1402 22.9832 12.02 22.9894 11.8994 22.9934C12.02 22.9894 12.1402 22.9832 12.2598 22.9755Z" fill="#DFDADC" fill-opacity="0.5"/>
<path d="M11.8933 22.9938C11.8298 22.9959 11.7661 22.9975 11.7024 22.9985C11.7661 22.9975 11.8298 22.9959 11.8933 22.9938Z" fill="#DFDADC" fill-opacity="0.5"/>
</g>
<defs>
<clipPath id="clip0">
<rect y="0.00115967" width="23" height="23" fill="white"/>
</clipPath>
</defs>
</svg>
