<svg width="24" height="24" viewBox="0 0 24 24" fill="none" xmlns="http://www.w3.org/2000/svg">
<g clip-path="url(#clip0)">
<path d="M14.7031 11.8C14.7031 13.1807 13.5839 14.3 12.2031 14.3C10.8224 14.3 9.70312 13.1807 9.70312 11.8C9.70312 10.4192 10.8224 9.29999 12.2031 9.29999C13.5839 9.29999 14.7031 10.4192 14.7031 11.8Z" fill="#DFDADC" fill-opacity="0.5"/>
<path d="M17.3716 7.60662C17.2612 7.31989 17.085 7.06036 16.8561 6.84734C16.6339 6.62799 16.3632 6.45918 16.0638 6.35337C15.821 6.263 15.4563 6.15543 14.7845 6.12613C14.0577 6.09437 13.8398 6.08752 12 6.08752C10.16 6.08752 9.94208 6.09419 9.21552 6.12595C8.5437 6.15543 8.17877 6.263 7.93616 6.35337C7.63678 6.45918 7.36597 6.62799 7.14386 6.84734C6.91498 7.06036 6.73883 7.31972 6.62823 7.60662C6.53394 7.8393 6.42169 8.18903 6.39111 8.83285C6.35797 9.52914 6.35083 9.73795 6.35083 11.5013C6.35083 13.2645 6.35797 13.4733 6.39111 14.1698C6.42169 14.8136 6.53394 15.1631 6.62823 15.3958C6.73883 15.6827 6.91479 15.9421 7.14368 16.1551C7.36597 16.3745 7.6366 16.5433 7.93597 16.6491C8.17877 16.7396 8.5437 16.8472 9.21552 16.8765C9.94208 16.9083 10.1598 16.9149 11.9998 16.9149C13.84 16.9149 14.0579 16.9083 14.7843 16.8765C15.4561 16.8472 15.821 16.7396 16.0638 16.6491C16.6648 16.4269 17.1398 15.9717 17.3716 15.3958C17.4659 15.1631 17.5781 14.8136 17.6089 14.1698C17.642 13.4733 17.649 13.2645 17.649 11.5013C17.649 9.73795 17.642 9.52914 17.6089 8.83285C17.5783 8.18903 17.4661 7.8393 17.3716 7.60662ZM12 14.892C10.0457 14.892 8.46149 13.374 8.46149 11.5011C8.46149 9.62828 10.0457 8.11024 12 8.11024C13.9541 8.11024 15.5383 9.62828 15.5383 11.5011C15.5383 13.374 13.9541 14.892 12 14.892ZM15.6782 8.76862C15.2216 8.76862 14.8513 8.41381 14.8513 7.97617C14.8513 7.53854 15.2216 7.18372 15.6782 7.18372C16.1349 7.18372 16.5051 7.53854 16.5051 7.97617C16.5049 8.41381 16.1349 8.76862 15.6782 8.76862Z" fill="#DFDADC" fill-opacity="0.5"/>
<path d="M12 0.00115967C5.3736 0.00115967 0 5.15086 0 11.5012C0 17.8515 5.3736 23.0012 12 23.0012C18.6264 23.0012 24 17.8515 24 11.5012C24 5.15086 18.6264 0.00115967 12 0.00115967ZM18.8491 14.2237C18.8157 14.9266 18.6991 15.4066 18.5288 15.8266C18.1708 16.7137 17.4391 17.4149 16.5135 17.7579C16.0754 17.9211 15.5744 18.0327 14.8411 18.0648C14.1063 18.097 13.8715 18.1047 12.0002 18.1047C10.1287 18.1047 9.8941 18.097 9.15912 18.0648C8.42578 18.0327 7.9248 17.9211 7.48663 17.7579C7.02667 17.5921 6.61029 17.3322 6.26605 16.9962C5.91559 16.6665 5.64441 16.2673 5.47137 15.8266C5.30109 15.4067 5.18445 14.9266 5.15112 14.2238C5.11725 13.5195 5.10938 13.2945 5.10938 11.5012C5.10938 9.70779 5.11725 9.48283 5.15094 8.77865C5.18427 8.07569 5.30072 7.59576 5.47101 7.17567C5.64404 6.73505 5.91541 6.33585 6.26605 6.00613C6.61011 5.67009 7.02667 5.41021 7.48645 5.24438C7.9248 5.08119 8.4256 4.96959 9.15912 4.93748C9.89392 4.90536 10.1287 4.89764 12 4.89764C13.8713 4.89764 14.1061 4.90536 14.8409 4.93765C15.5744 4.96959 16.0752 5.08119 16.5135 5.24421C16.9733 5.41003 17.3899 5.67009 17.7341 6.00613C18.0846 6.33602 18.356 6.73505 18.5288 7.17567C18.6993 7.59576 18.8157 8.07569 18.8492 8.77865C18.8828 9.48283 18.8906 9.70779 18.8906 11.5012C18.8906 13.2945 18.8828 13.5195 18.8491 14.2237Z" fill="#DFDADC" fill-opacity="0.5"/>
</g>
<defs>
<clipPath id="clip0">
<rect y="0.00115967" width="24" height="23" fill="white"/>
</clipPath>
</defs>
</svg>
