<svg width="24" height="24" viewBox="0 0 24 24" fill="none" xmlns="http://www.w3.org/2000/svg">
<g clip-path="url(#clip0)">
<path d="M12 0.00115967C5.3736 0.00115967 0 5.15086 0 11.5012C0 17.8515 5.3736 23.0012 12 23.0012C18.6264 23.0012 24 17.8515 24 11.5012C24 5.15086 18.6264 0.00115967 12 0.00115967ZM17.4791 8.96764C17.4844 9.08082 17.4869 9.19453 17.4869 9.30876C17.4869 12.7967 14.7166 16.8188 9.65021 16.819H9.65039H9.65021C8.09473 16.819 6.64728 16.382 5.42834 15.6333C5.64386 15.6577 5.86322 15.6698 6.08533 15.6698C7.37585 15.6698 8.56348 15.2479 9.50629 14.5399C8.30054 14.5185 7.28394 13.7553 6.93311 12.7065C7.10101 12.7374 7.27368 12.7542 7.45074 12.7542C7.70215 12.7542 7.94568 12.7218 8.17712 12.6612C6.91681 12.4194 5.96741 11.352 5.96741 10.0738C5.96741 10.0619 5.96741 10.0512 5.96777 10.0401C6.33893 10.2379 6.76337 10.3569 7.21527 10.3702C6.47571 9.89731 5.98956 9.08889 5.98956 8.17308C5.98956 7.68947 6.12598 7.23639 6.36255 6.84631C7.72083 8.44349 9.75073 9.49389 12.0399 9.60426C11.9927 9.41089 11.9683 9.20944 11.9683 9.00238C11.9683 7.54523 13.2019 6.36304 14.723 6.36304C15.5153 6.36304 16.2308 6.68399 16.7335 7.19708C17.361 7.07846 17.9502 6.85876 18.4825 6.55642C18.2765 7.17252 17.84 7.68947 17.2712 8.01638C17.8284 7.95251 18.3594 7.8109 18.8529 7.60068C18.4843 8.13009 18.0168 8.5951 17.4791 8.96764Z" fill="#DFDADC" fill-opacity="0.5"/>
</g>
<defs>
<clipPath id="clip0">
<rect y="0.00115967" width="24" height="23" fill="white"/>
</clipPath>
</defs>
</svg>
