<svg width="23" height="24" viewBox="0 0 23 24" fill="none" xmlns="http://www.w3.org/2000/svg">
<g clip-path="url(#clip0)">
<path d="M10.0676 13.6557L13.8084 11.5012L10.0676 9.34668V13.6557Z" fill="#DFDADC" fill-opacity="0.5"/>
<path d="M11.5 0.00115967C5.1497 0.00115967 0 5.15086 0 11.5012C0 17.8515 5.1497 23.0012 11.5 23.0012C17.8503 23.0012 23 17.8515 23 11.5012C23 5.15086 17.8503 0.00115967 11.5 0.00115967ZM18.6857 11.5129C18.6857 11.5129 18.6857 13.8452 18.3899 14.9698C18.2241 15.5854 17.7387 16.0707 17.1231 16.2364C15.9985 16.5324 11.5 16.5324 11.5 16.5324C11.5 16.5324 7.01325 16.5324 5.87687 16.2246C5.2613 16.059 4.77593 15.5734 4.61011 14.9579C4.31408 13.8452 4.31408 11.5012 4.31408 11.5012C4.31408 11.5012 4.31408 9.16908 4.61011 8.04446C4.77576 7.42889 5.27306 6.93159 5.87687 6.76594C7.0015 6.46991 11.5 6.46991 11.5 6.46991C11.5 6.46991 15.9985 6.46991 17.1231 6.77769C17.7387 6.94334 18.2241 7.42889 18.3899 8.04446C18.6977 9.16908 18.6857 11.5129 18.6857 11.5129Z" fill="#DFDADC" fill-opacity="0.5"/>
</g>
<defs>
<clipPath id="clip0">
<rect y="0.00115967" width="23" height="23" fill="white"/>
</clipPath>
</defs>
</svg>
