<svg width="24" height="23" viewBox="0 0 24 23" fill="none" xmlns="http://www.w3.org/2000/svg">
<path d="M14.7031 11.7988C14.7031 13.1796 13.5839 14.2988 12.2031 14.2988C10.8224 14.2988 9.70312 13.1796 9.70312 11.7988C9.70312 10.4181 10.8224 9.29883 12.2031 9.29883C13.5839 9.29883 14.7031 10.4181 14.7031 11.7988Z" fill="white" fill-opacity="0.7"/>
<path d="M17.3716 7.60552C17.2612 7.31879 17.085 7.05926 16.8561 6.84624C16.6339 6.62689 16.3632 6.45808 16.0638 6.35227C15.821 6.2619 15.4563 6.15434 14.7845 6.12503C14.0577 6.09327 13.8398 6.08643 12 6.08643C10.16 6.08643 9.94208 6.09309 9.21552 6.12486C8.5437 6.15434 8.17877 6.2619 7.93616 6.35227C7.63678 6.45808 7.36597 6.62689 7.14386 6.84624C6.91498 7.05926 6.73883 7.31862 6.62823 7.60552C6.53394 7.8382 6.42169 8.18793 6.39111 8.83175C6.35797 9.52804 6.35083 9.73685 6.35083 11.5002C6.35083 13.2634 6.35797 13.4722 6.39111 14.1687C6.42169 14.8125 6.53394 15.162 6.62823 15.3947C6.73883 15.6816 6.91479 15.941 7.14368 16.154C7.36597 16.3734 7.6366 16.5422 7.93597 16.648C8.17877 16.7385 8.5437 16.8461 9.21552 16.8754C9.94208 16.9072 10.1598 16.9138 11.9998 16.9138C13.84 16.9138 14.0579 16.9072 14.7843 16.8754C15.4561 16.8461 15.821 16.7385 16.0638 16.648C16.6648 16.4258 17.1398 15.9706 17.3716 15.3947C17.4659 15.162 17.5781 14.8125 17.6089 14.1687C17.642 13.4722 17.649 13.2634 17.649 11.5002C17.649 9.73685 17.642 9.52804 17.6089 8.83175C17.5783 8.18793 17.4661 7.8382 17.3716 7.60552ZM12 14.8909C10.0457 14.8909 8.46149 13.3729 8.46149 11.5C8.46149 9.62718 10.0457 8.10914 12 8.10914C13.9541 8.10914 15.5383 9.62718 15.5383 11.5C15.5383 13.3729 13.9541 14.8909 12 14.8909ZM15.6782 8.76752C15.2216 8.76752 14.8513 8.41271 14.8513 7.97507C14.8513 7.53744 15.2216 7.18262 15.6782 7.18262C16.1349 7.18262 16.5051 7.53744 16.5051 7.97507C16.5049 8.41271 16.1349 8.76752 15.6782 8.76752Z" fill="white" fill-opacity="0.7"/>
<path d="M12 0C5.3736 0 0 5.1497 0 11.5C0 17.8503 5.3736 23 12 23C18.6264 23 24 17.8503 24 11.5C24 5.1497 18.6264 0 12 0ZM18.8491 14.2225C18.8157 14.9255 18.6991 15.4054 18.5288 15.8255C18.1708 16.7125 17.4391 17.4137 16.5135 17.7568C16.0754 17.92 15.5744 18.0316 14.8411 18.0637C14.1063 18.0958 13.8715 18.1035 12.0002 18.1035C10.1287 18.1035 9.8941 18.0958 9.15912 18.0637C8.42578 18.0316 7.9248 17.92 7.48663 17.7568C7.02667 17.591 6.61029 17.3311 6.26605 16.995C5.91559 16.6653 5.64441 16.2661 5.47137 15.8255C5.30109 15.4056 5.18445 14.9255 5.15112 14.2227C5.11725 13.5183 5.10938 13.2934 5.10938 11.5C5.10938 9.70663 5.11725 9.48167 5.15094 8.77749C5.18427 8.07453 5.30072 7.5946 5.47101 7.17451C5.64404 6.73389 5.91541 6.33469 6.26605 6.00497C6.61011 5.66893 7.02667 5.40905 7.48645 5.24323C7.9248 5.08003 8.4256 4.96843 9.15912 4.93632C9.89392 4.90421 10.1287 4.89648 12 4.89648C13.8713 4.89648 14.1061 4.90421 14.8409 4.93649C15.5744 4.96843 16.0752 5.08003 16.5135 5.24305C16.9733 5.40887 17.3899 5.66893 17.7341 6.00497C18.0846 6.33486 18.356 6.73389 18.5288 7.17451C18.6993 7.5946 18.8157 8.07453 18.8492 8.77749C18.8828 9.48167 18.8906 9.70663 18.8906 11.5C18.8906 13.2934 18.8828 13.5183 18.8491 14.2225Z" fill="white" fill-opacity="0.7"/>
</svg>
