<svg width="24" height="23" viewBox="0 0 24 23" fill="none" xmlns="http://www.w3.org/2000/svg">
<path d="M12 0C5.3736 0 0 5.1497 0 11.5C0 17.8503 5.3736 23 12 23C18.6264 23 24 17.8503 24 11.5C24 5.1497 18.6264 0 12 0ZM17.4791 8.96648C17.4844 9.07966 17.4869 9.19337 17.4869 9.3076C17.4869 12.7955 14.7166 16.8176 9.65021 16.8178H9.65039H9.65021C8.09473 16.8178 6.64728 16.3809 5.42834 15.6321C5.64386 15.6565 5.86322 15.6686 6.08533 15.6686C7.37585 15.6686 8.56348 15.2468 9.50629 14.5387C8.30054 14.5173 7.28394 13.7542 6.93311 12.7053C7.10101 12.7362 7.27368 12.7531 7.45074 12.7531C7.70215 12.7531 7.94568 12.7206 8.17712 12.6601C6.91681 12.4183 5.96741 11.3508 5.96741 10.0727C5.96741 10.0607 5.96741 10.05 5.96777 10.039C6.33893 10.2367 6.76337 10.3557 7.21527 10.3691C6.47571 9.89615 5.98956 9.08773 5.98956 8.17192C5.98956 7.68831 6.12598 7.23523 6.36255 6.84515C7.72083 8.44233 9.75073 9.49273 12.0399 9.6031C11.9927 9.40973 11.9683 9.20828 11.9683 9.00122C11.9683 7.54407 13.2019 6.36189 14.723 6.36189C15.5153 6.36189 16.2308 6.68283 16.7335 7.19592C17.361 7.0773 17.9502 6.8576 18.4825 6.55526C18.2765 7.17136 17.84 7.68831 17.2712 8.01522C17.8284 7.95135 18.3594 7.80974 18.8529 7.59952C18.4843 8.12893 18.0168 8.59394 17.4791 8.96648Z" fill="white" fill-opacity="0.7"/>
</svg>
