<svg width="75" height="75" viewBox="0 0 75 75" fill="none" xmlns="http://www.w3.org/2000/svg">
<path d="M19.1719 44.989V69.8561H4.39453C3.59424 69.8561 2.94727 69.2092 2.94727 68.4089V46.4362C2.94727 45.6359 3.59424 44.989 4.39453 44.989H19.1719ZM14.0801 59.6198C14.0801 57.9921 12.7605 56.6725 11.1328 56.6725C9.50512 56.6725 8.18555 57.9921 8.18555 59.6198C8.18555 61.2475 9.50512 62.5671 11.1328 62.5671C12.7605 62.5671 14.0801 61.2475 14.0801 59.6198Z" stroke="#E9AA09" stroke-width="1.5"/>
<path d="M54.2207 36.1999L54.2832 35.392C54.3196 34.9218 54.4966 34.3836 54.7165 33.8398C54.9421 33.2817 55.2435 32.6462 55.5746 31.9651C55.6678 31.7733 55.7638 31.5773 55.8616 31.3773C56.4664 30.1413 57.1463 28.7516 57.7354 27.2643C59.1159 23.7787 59.8909 20.0091 58.1544 16.8031L58.1543 16.8029C57.3668 15.3476 56.0914 14.3899 54.5633 14.0737C53.8256 13.9252 53.1054 14.3534 52.8851 15.0664L54.2207 36.1999ZM54.2207 36.1999H55.031M54.2207 36.1999H55.031M55.031 36.1999H69.5068C70.9128 36.1999 72.0527 37.3398 72.0527 38.7458C72.0527 40.1518 70.9128 41.2917 69.5068 41.2917H61.6699C60.0422 41.2917 58.7227 42.6113 58.7227 44.239C58.7227 45.8667 60.0422 47.1862 61.6699 47.1862H69.5068C70.9128 47.1862 72.0527 48.3261 72.0527 49.7321C72.0527 51.1381 70.9128 52.278 69.5068 52.278H61.6699C60.0422 52.278 58.7227 53.5976 58.7227 55.2253C58.7227 56.853 60.0422 58.1726 61.6699 58.1726H69.5068C70.9128 58.1726 72.0527 59.3125 72.0527 60.7185C72.0527 62.1245 70.9128 63.2644 69.5068 63.2644H61.6699C60.0422 63.2644 58.7227 64.5839 58.7227 66.2116C58.7227 67.8393 60.0422 69.1589 61.6699 69.1589H64.9658C66.3718 69.1589 67.5117 70.2988 67.5117 71.7048C67.5117 73.1108 66.3718 74.2507 64.9658 74.2507H51.3959C45.1702 74.2507 39.0211 73.2531 33.1174 71.2851L33.1172 71.285C30.5087 70.4162 27.805 69.9398 25.0664 69.8662M55.031 36.1999L32.8802 71.9966C30.11 71.0739 27.2304 70.6062 24.3164 70.6062H25.0664V69.8662M25.0664 69.8662V44.9636C27.7901 44.7796 30.4076 43.6013 32.3449 41.6657C33.4642 40.575 34.2956 39.73 34.9764 39.0381C36.4156 37.5753 37.182 36.7964 38.574 35.8253C43.8276 32.1852 46.857 28.8333 48.8526 25.4359C50.6532 22.3705 51.5931 19.2934 52.5807 16.0599C52.6814 15.7305 52.7825 15.3994 52.8851 15.0665L25.0664 69.8662Z" stroke="#E9AA09" stroke-width="1.5"/>
</svg>
