<svg width="75" height="75" viewBox="0 0 75 75" fill="none" xmlns="http://www.w3.org/2000/svg">
<g clip-path="url(#clip0)">
<path d="M12.8584 38.9197L12.8583 38.9201L11.307 44.7005C11.1012 45.4679 11.5577 46.2595 12.3293 46.4653L12.3297 46.4654L18.1247 48.0147L12.8584 38.9197ZM12.8584 38.9197C13.1294 37.9077 12.8388 36.82 12.095 36.0781L7.85277 31.8469C7.28833 31.284 7.28833 30.3729 7.85277 29.81L12.095 25.5788C12.8391 24.8366 13.1292 23.7489 12.8586 22.7356L12.8583 22.7346L11.307 16.9563C11.3069 16.9562 11.3069 16.9561 11.3069 16.956C11.1013 16.1887 11.5578 15.3972 12.3293 15.1914L12.3298 15.1913M12.8584 38.9197L12.3298 15.1913M23.5302 56.8931L23.5338 56.8922L29.3274 55.3448L29.3304 55.344C30.3496 55.0763 31.4299 55.3601 32.1752 56.1058L32.1749 56.1056L31.6452 56.6366L32.1759 56.1066L36.4171 60.3367C36.7 60.6189 37.0692 60.7598 37.4409 60.7598C37.8127 60.7598 38.182 60.6188 38.4646 60.3368L38.4647 60.3367L42.7059 56.1066C43.447 55.3645 44.536 55.0785 45.5488 55.3439L45.5521 55.3448L51.3478 56.8922L51.3497 56.8927C52.1295 57.103 52.914 56.6453 53.1206 55.8734L53.1208 55.8727L54.6741 50.0928L23.5302 56.8931ZM23.5302 56.8931C22.7693 57.1004 21.9688 56.6439 21.7608 55.8726L23.5302 56.8931ZM62.5519 46.4655L62.5523 46.4653C63.3239 46.2595 63.7804 45.4681 63.5747 44.7007C63.5747 44.7006 63.5747 44.7006 63.5747 44.7005L62.0233 38.9222L62.0231 38.9212C61.7525 37.9078 62.0425 36.8201 62.7867 36.0779L67.0289 31.8468C67.5933 31.2838 67.5933 30.3728 67.0289 29.8098L62.7867 25.5787C62.0428 24.8368 61.7522 23.749 62.0232 22.7371L62.0233 22.7367L63.5747 16.9563C63.7805 16.1888 63.3239 15.3972 62.5523 15.1914L62.5519 15.1913L56.7569 13.6421C55.7431 13.372 54.9457 12.5775 54.6743 11.5626C54.6742 11.5622 54.6741 11.5618 54.674 11.5614L53.1209 5.78448L62.5519 46.4655ZM62.5519 46.4655L56.7595 48.0146M62.5519 46.4655L56.7595 48.0146M45.5422 6.31517L45.5421 6.31507C44.5283 6.56781 43.4507 6.29889 42.7047 5.54915L42.6978 5.54217L42.6978 5.54213L38.4605 1.16993C37.8961 0.61125 36.9853 0.611246 36.4208 1.16991L32.1835 5.54213L32.1747 5.55127L32.1746 5.55119C31.4276 6.29625 30.3419 6.57234 29.3361 6.31372L29.3294 6.31199L29.3294 6.31196L23.5385 4.76585C23.5378 4.76567 23.5371 4.76548 23.5364 4.7653C22.764 4.56578 21.9662 5.0225 21.7607 5.78404L45.5422 6.31517ZM45.5422 6.31517L45.5542 6.31194M45.5422 6.31517L45.5542 6.31194M45.5542 6.31194L51.3426 4.76594C51.3434 4.76574 51.3442 4.76555 51.3449 4.76535M45.5542 6.31194L51.3449 4.76535M12.3298 15.1913L18.122 13.6422C18.1222 13.6421 18.1224 13.6421 18.1226 13.642M12.3298 15.1913L18.1226 13.642M20.2076 50.0948C19.9363 49.0799 19.1391 48.2851 18.1254 48.0149L20.2076 50.0948ZM20.2076 50.0948C20.2076 50.095 20.2077 50.0952 20.2077 50.0953L21.7607 55.8723L20.2076 50.0948ZM56.7595 48.0146C55.7437 48.2844 54.9458 49.0788 54.6743 50.0922L56.7595 48.0146ZM51.3449 4.76535C52.1328 4.56226 52.9144 5.01865 53.1208 5.7841L51.3449 4.76535ZM18.1226 13.642C19.1381 13.3721 19.9357 12.5777 20.2072 11.5646L18.1226 13.642ZM20.2074 11.5639L21.7606 5.7845L20.2074 11.5639ZM55.7692 30.8284C55.7692 20.7451 47.5458 12.546 37.441 12.546C27.3362 12.546 19.1129 20.7451 19.1129 30.8284C19.1129 40.9116 27.3362 49.1107 37.441 49.1107C47.5458 49.1107 55.7692 40.9116 55.7692 30.8284Z" stroke="#E9AA09" stroke-width="1.5"/>
<path d="M58.4579 65.6624L58.0797 65.685L57.8735 66.0029L53.069 73.4096C52.8009 73.813 52.3465 74.0554 51.8616 74.0554H51.8615H51.8613H51.8612H51.8611H51.861H51.8608H51.8607H51.8606H51.8605H51.8603H51.8602H51.8601H51.86H51.8598H51.8597H51.8596H51.8595H51.8593H51.8592H51.8591H51.859H51.8588H51.8587H51.8586H51.8585H51.8583H51.8582H51.8581H51.858H51.8578H51.8577H51.8576H51.8575H51.8573H51.8572H51.8571H51.857H51.8568H51.8567H51.8566H51.8565H51.8563H51.8562H51.8561H51.856H51.8558H51.8557H51.8556H51.8554H51.8553H51.8552H51.8551H51.8549H51.8548H51.8547H51.8546H51.8544H51.8543H51.8542H51.8541H51.8539H51.8538H51.8537H51.8536H51.8534H51.8533H51.8532H51.8531H51.8529H51.8528H51.8527H51.8526H51.8524H51.8523H51.8522H51.8521H51.8519H51.8518H51.8517H51.8516H51.8514H51.8513H51.8512H51.851H51.8509H51.8508H51.8507H51.8505H51.8504H51.8503H51.8502H51.85H51.8499H51.8498H51.8497H51.8495H51.8494H51.8493H51.8492H51.849H51.8489H51.8488H51.8487H51.8485H51.8484H51.8483H51.8482H51.848H51.8479H51.8478H51.8476H51.8475H51.8474H51.8473H51.8471H51.847H51.8469H51.8468H51.8466H51.8465H51.8464H51.8463H51.8461H51.846H51.8459H51.8458H51.8456H51.8455H51.8454H51.8452H51.8451H51.845H51.8449H51.8447H51.8446H51.8445H51.8444H51.8442H51.8441H51.844H51.8439H51.8437H51.8436H51.8435H51.8433H51.8432H51.8431H51.843H51.8428H51.8427H51.8426H51.8425H51.8423H51.8422H51.8421H51.842H51.8418H51.8417H51.8416H51.8414H51.8413H51.8412H51.8411H51.8409H51.8408H51.8407H51.8406H51.8404H51.8403H51.8402H51.84H51.8399H51.8398H51.8397H51.8395H51.8394H51.8393H51.8392H51.839H51.8389H51.8388H51.8386H51.8385H51.8384H51.8383H51.8381H51.838H51.8379H51.8378H51.8376H51.8375H51.8374H51.8372H51.8371H51.837H51.8369H51.8367H51.8366H51.8365H51.8364H51.8362H51.8361H51.836H51.8358H51.8357H51.8356H51.8355H51.8353H51.8352H51.8351H51.8349H51.8348H51.8347H51.8346H51.8344H51.8343H51.8342H51.8341H51.8339H51.8338H51.8337H51.8335H51.8334H51.8333H51.8332H51.833H51.8329H51.8328H51.8326H51.8325H51.8324H51.8323H51.8321H51.832H51.8319H51.8317H51.8316H51.8315H51.8314H51.8312H51.8311H51.831H51.8308H51.8307H51.8306H51.8305H51.8303H51.8302H51.8301H51.8299H51.8298H51.8297H51.8296H51.8294H51.8293H51.8292H51.829H51.8289H51.8288H51.8287H51.8285H51.8284H51.8283H51.8281H51.828H51.8279H51.8277H51.8276H51.8275H51.8274H51.8272H51.8271H51.827H51.8268H51.8267H51.8266H51.8265H51.8263H51.8262H51.8261H51.8259H51.8258H51.8257H51.8255H51.8254H51.8253H51.8252H51.825H51.8249H51.8248H51.8246H51.8245H51.8244H51.8243H51.8241H51.824H51.8239H51.8237H51.8236H51.8235H51.8233H51.8232H51.8231H51.8229H51.8228H51.8227H51.8226H51.8224H51.8223H51.8222H51.822H51.8219H51.8218H51.8216H51.8215H51.8214H51.8213H51.8211H51.821H51.8209H51.8207H51.8206H51.8205H51.8203H51.8202H51.8201H51.8199H51.8198H51.8197H51.8196H51.8194H51.8193H51.8192H51.819H51.8189H51.8188H51.8186H51.8185H51.8184H51.8182H51.8181H51.818H51.8178H51.8177H51.8176H51.8175H51.8173H51.8172H51.8171H51.8169H51.8168H51.8167H51.8165H51.8164H51.8163H51.8161H51.816H51.8159H51.8157H51.8156H51.8155H51.8153H51.8152H51.8151H51.8149H51.8148H51.8147H51.8145H51.8144H51.8143H51.8142H51.814H51.8139H51.8138H51.8136H51.8135H51.8134H51.8132H51.8131H51.813H51.8128H51.8127H51.8126H51.8124H51.8123H51.8122H51.812H51.8119H51.8118H51.8116H51.8115H51.8114H51.8112H51.8111H51.811H51.8108H51.8107H51.8106H51.8104H51.8103H51.8102H51.81H51.8099H51.8098H51.8096H51.8095H51.8094H51.8092H51.8091H51.809H51.8088H51.8087H51.8086H51.8084H51.8083H51.8082H51.808H51.8079C51.3125 74.0365 50.8586 73.7642 50.6081 73.335C50.6076 73.3342 50.6072 73.3334 50.6068 73.3327L44.5179 62.675L45.7296 61.4665L49.8706 62.5724C49.8708 62.5725 49.871 62.5725 49.8712 62.5726C50.4988 62.7415 51.1455 62.8272 51.7929 62.8272C55.1061 62.8272 58.0171 60.5942 58.8732 57.3959C58.8732 57.3959 58.8732 57.3958 58.8732 57.3958L59.9858 53.2582L62.3449 52.628L68.3376 62.9813C68.5875 63.4136 68.5955 63.9456 68.3592 64.3833L68.3587 64.3842C68.1221 64.8239 67.6736 65.1104 67.1704 65.1401L67.1698 65.1402L58.4579 65.6624Z" stroke="#E9AA09" stroke-width="1.5"/>
<path d="M6.64071 64.3831L6.6412 64.384C6.87791 64.8239 7.32643 65.1104 7.82939 65.14L7.83018 65.14L16.542 65.6622L16.9202 65.6849L17.1264 66.0027L21.931 73.4096C22.199 73.813 22.6534 74.0552 23.1383 74.0552H23.1385H23.1386H23.1387H23.1388H23.139H23.1391H23.1392H23.1393H23.1395H23.1396H23.1397H23.1398H23.14H23.1401H23.1402H23.1403H23.1405H23.1406H23.1407H23.1408H23.141H23.1411H23.1412H23.1413H23.1415H23.1416H23.1417H23.1418H23.142H23.1421H23.1422H23.1423H23.1425H23.1426H23.1427H23.1428H23.143H23.1431H23.1432H23.1433H23.1435H23.1436H23.1437H23.1438H23.144H23.1441H23.1442H23.1444H23.1445H23.1446H23.1447H23.1449H23.145H23.1451H23.1452H23.1454H23.1455H23.1456H23.1457H23.1459H23.146H23.1461H23.1462H23.1464H23.1465H23.1466H23.1467H23.1469H23.147H23.1471H23.1472H23.1474H23.1475H23.1476H23.1477H23.1479H23.148H23.1481H23.1482H23.1484H23.1485H23.1486H23.1488H23.1489H23.149H23.1491H23.1493H23.1494H23.1495H23.1496H23.1498H23.1499H23.15H23.1501H23.1503H23.1504H23.1505H23.1506H23.1508H23.1509H23.151H23.1511H23.1513H23.1514H23.1515H23.1516H23.1518H23.1519H23.152H23.1522H23.1523H23.1524H23.1525H23.1527H23.1528H23.1529H23.153H23.1532H23.1533H23.1534H23.1535H23.1537H23.1538H23.1539H23.154H23.1542H23.1543H23.1544H23.1546H23.1547H23.1548H23.1549H23.1551H23.1552H23.1553H23.1554H23.1556H23.1557H23.1558H23.1559H23.1561H23.1562H23.1563H23.1565H23.1566H23.1567H23.1568H23.157H23.1571H23.1572H23.1573H23.1575H23.1576H23.1577H23.1578H23.158H23.1581H23.1582H23.1584H23.1585H23.1586H23.1587H23.1589H23.159H23.1591H23.1592H23.1594H23.1595H23.1596H23.1598H23.1599H23.16H23.1601H23.1603H23.1604H23.1605H23.1606H23.1608H23.1609H23.161H23.1612H23.1613H23.1614H23.1615H23.1617H23.1618H23.1619H23.162H23.1622H23.1623H23.1624H23.1626H23.1627H23.1628H23.1629H23.1631H23.1632H23.1633H23.1634H23.1636H23.1637H23.1638H23.164H23.1641H23.1642H23.1643H23.1645H23.1646H23.1647H23.1649H23.165H23.1651H23.1652H23.1654H23.1655H23.1656H23.1657H23.1659H23.166H23.1661H23.1663H23.1664H23.1665H23.1666H23.1668H23.1669H23.167H23.1672H23.1673H23.1674H23.1675H23.1677H23.1678H23.1679H23.1681H23.1682H23.1683H23.1684H23.1686H23.1687H23.1688H23.169H23.1691H23.1692H23.1693H23.1695H23.1696H23.1697H23.1699H23.17H23.1701H23.1702H23.1704H23.1705H23.1706H23.1708H23.1709H23.171H23.1711H23.1713H23.1714H23.1715H23.1717H23.1718H23.1719H23.1721H23.1722H23.1723H23.1724H23.1726H23.1727H23.1728H23.173H23.1731H23.1732H23.1733H23.1735H23.1736H23.1737H23.1739H23.174H23.1741H23.1743H23.1744H23.1745H23.1746H23.1748H23.1749H23.175H23.1752H23.1753H23.1754H23.1755H23.1757H23.1758H23.1759H23.1761H23.1762H23.1763H23.1765H23.1766H23.1767H23.1768H23.177H23.1771H23.1772H23.1774H23.1775H23.1776H23.1778H23.1779H23.178H23.1782H23.1783H23.1784H23.1785H23.1787H23.1788H23.1789H23.1791H23.1792H23.1793H23.1795H23.1796H23.1797H23.1799H23.18H23.1801H23.1802H23.1804H23.1805H23.1806H23.1808H23.1809H23.181H23.1812H23.1813H23.1814H23.1816H23.1817H23.1818H23.182H23.1821H23.1822H23.1823H23.1825H23.1826H23.1827H23.1829H23.183H23.1831H23.1833H23.1834H23.1835H23.1837H23.1838H23.1839H23.1841H23.1842H23.1843H23.1845H23.1846H23.1847H23.1849H23.185H23.1851H23.1852H23.1854H23.1855H23.1856H23.1858H23.1859H23.186H23.1862H23.1863H23.1864H23.1866H23.1867H23.1868H23.187H23.1871H23.1872H23.1874H23.1875H23.1876H23.1878H23.1879H23.188H23.1882H23.1883H23.1884H23.1886H23.1887H23.1888H23.189H23.1891H23.1892H23.1894H23.1895H23.1896H23.1898H23.1899H23.19H23.1902H23.1903H23.1904H23.1906H23.1907H23.1908H23.191H23.1911H23.1912H23.1914H23.1915H23.1916H23.1918H23.1919H23.192C23.6875 74.0363 24.1413 73.7641 24.3919 73.3348C24.3923 73.334 24.3927 73.3333 24.3932 73.3325L30.482 62.6749L29.2703 61.4663L25.1206 62.5739C25.12 62.5741 25.1194 62.5743 25.1188 62.5744C24.5123 62.7393 23.8652 62.8272 23.2157 62.8272C19.9033 62.8272 16.988 60.5972 16.1272 57.4011L16.127 57.4007L15.0142 53.258L12.6556 52.627L6.66229 62.9811L6.64071 64.3831ZM6.64071 64.3831C6.40445 63.9455 6.41237 63.4137 6.66209 62.9815L6.64071 64.3831Z" stroke="#E9AA09" stroke-width="1.5"/>
<path d="M46.1371 30.3901C46.1371 35.3983 42.0772 39.4582 37.069 39.4582C32.0608 39.4582 28.0009 35.3983 28.0009 30.3901C28.0009 25.3819 32.0608 21.322 37.069 21.322C42.0772 21.322 46.1371 25.3819 46.1371 30.3901Z" stroke="#E9AA09" stroke-width="1.5"/>
</g>
<defs>
<clipPath id="clip0">
<rect y="0.000671387" width="75" height="74.8047" fill="white"/>
</clipPath>
</defs>
</svg>
