<svg width="23" height="23" viewBox="0 0 23 23" fill="none" xmlns="http://www.w3.org/2000/svg">
<path d="M13.3543 22.8503C13.2585 22.866 13.1623 22.8803 13.0658 22.8935C13.1623 22.8803 13.2585 22.866 13.3543 22.8503Z" fill="white" fill-opacity="0.7"/>
<path d="M13.5843 22.811C13.5385 22.8195 13.4927 22.8272 13.4469 22.8351C13.4927 22.8272 13.5385 22.8195 13.5843 22.811Z" fill="white" fill-opacity="0.7"/>
<path d="M12.8088 22.9255C12.6967 22.9382 12.5839 22.9494 12.4707 22.9589C12.5839 22.9494 12.6967 22.9382 12.8088 22.9255Z" fill="white" fill-opacity="0.7"/>
<path d="M13.0298 22.8984C12.9759 22.9056 12.9217 22.9123 12.8677 22.9186C12.9217 22.9123 12.9759 22.9056 13.0298 22.8984Z" fill="white" fill-opacity="0.7"/>
<path d="M13.8973 22.7488C13.8569 22.7574 13.8164 22.766 13.7759 22.7742C13.8164 22.766 13.8569 22.7574 13.8973 22.7488Z" fill="white" fill-opacity="0.7"/>
<path d="M14.6743 22.5559C14.6417 22.5652 14.6091 22.574 14.5764 22.5831C14.6091 22.574 14.6417 22.5652 14.6743 22.5559Z" fill="white" fill-opacity="0.7"/>
<path d="M14.4393 22.6201C14.4039 22.6294 14.3683 22.6389 14.3326 22.6478C14.3683 22.6389 14.4039 22.6296 14.4393 22.6201Z" fill="white" fill-opacity="0.7"/>
<path d="M14.132 22.697C14.0945 22.7058 14.0566 22.714 14.0187 22.7225C14.0566 22.714 14.0945 22.7058 14.132 22.697Z" fill="white" fill-opacity="0.7"/>
<path d="M12.4671 22.9592C12.4065 22.9643 12.346 22.9689 12.2853 22.9729C12.346 22.9689 12.4065 22.9643 12.4671 22.9592Z" fill="white" fill-opacity="0.7"/>
<path d="M23 11.5C23 5.1497 17.8503 0 11.5 0C5.1497 0 0 5.1497 0 11.5C0 17.8503 5.1497 23 11.5 23C11.5676 23 11.6348 22.9986 11.7021 22.9974V14.0451H9.23145V11.1657H11.7021V9.04684C11.7021 6.58948 13.2023 5.252 15.3943 5.252C16.444 5.252 17.3463 5.33026 17.6094 5.36518V7.93345H16.0978C14.9053 7.93345 14.6744 8.50024 14.6744 9.33182V11.1657H17.5258L17.1542 14.0451H14.6744V22.5557C19.4812 21.1777 23 16.7492 23 11.5Z" fill="white" fill-opacity="0.7"/>
<path d="M12.2598 22.9744C12.1402 22.9821 12.02 22.9882 11.8994 22.9923C12.02 22.9882 12.1402 22.9821 12.2598 22.9744Z" fill="white" fill-opacity="0.7"/>
<path d="M11.8933 22.9927C11.8298 22.9948 11.7661 22.9964 11.7024 22.9974C11.7661 22.9964 11.8298 22.9948 11.8933 22.9927Z" fill="white" fill-opacity="0.7"/>
</svg>
