<svg width="20" height="21" viewBox="0 0 20 21" fill="none" xmlns="http://www.w3.org/2000/svg">
<path d="M10 0.0949707C11.3261 0.0949707 12.5979 0.621755 13.5355 1.55944C14.4732 2.49712 15 3.76889 15 5.09497C15 6.42105 14.4732 7.69282 13.5355 8.6305C12.5979 9.56819 11.3261 10.095 10 10.095C8.67392 10.095 7.40215 9.56819 6.46447 8.6305C5.52678 7.69282 5 6.42105 5 5.09497C5 3.76889 5.52678 2.49712 6.46447 1.55944C7.40215 0.621755 8.67392 0.0949707 10 0.0949707ZM10 12.595C15.525 12.595 20 14.8325 20 17.595V20.095H0V17.595C0 14.8325 4.475 12.595 10 12.595Z" fill="white" fill-opacity="0.4"/>
</svg>
