<svg width="28" height="23" viewBox="0 0 28 23" fill="none" xmlns="http://www.w3.org/2000/svg">
<path d="M14 0.253422C8.70333 0.253422 3.89667 2.33009 0.338333 5.70175C0.128333 5.91175 0 6.20342 0 6.53009C0 6.85675 0.128333 7.14842 0.338333 7.35842L3.23167 10.2518C3.45019 10.4678 3.74449 10.59 4.05179 10.5922C4.3591 10.5943 4.6551 10.4764 4.87667 10.2634C5.79833 9.40009 6.84833 8.67675 7.98 8.10509C8.365 7.91842 8.63333 7.52175 8.63333 7.05509V3.43842C10.325 2.87842 12.1217 2.58675 14 2.58675C15.855 2.58675 17.6633 2.87842 19.355 3.42675V7.04342C19.355 7.49842 19.6233 7.90675 20.0083 8.09342C21.1517 8.66509 22.1667 9.40009 23.1233 10.2518C23.3333 10.4618 23.625 10.5784 23.9167 10.5784C24.2667 10.5784 24.5583 10.4501 24.7683 10.2401L27.6617 7.34675C27.8717 7.13675 28 6.84509 28 6.51842C28 6.19175 27.86 5.91175 27.65 5.70175C23.9679 2.20101 19.0806 0.250276 14 0.253422ZM10.5 4.92009V8.42009C10.5 8.42009 3.5 14.2534 3.5 17.7534V22.4201H24.5V17.7534C24.5 14.2534 17.5 8.42009 17.5 8.42009V4.92009H15.1667V7.25342H12.8333V4.92009H10.5ZM14 10.7534C15.2377 10.7534 16.4247 11.2451 17.2998 12.1203C18.175 12.9954 18.6667 14.1824 18.6667 15.4201C18.6667 16.6578 18.175 17.8447 17.2998 18.7199C16.4247 19.5951 15.2377 20.0868 14 20.0868C12.7623 20.0868 11.5753 19.5951 10.7002 18.7199C9.825 17.8447 9.33333 16.6578 9.33333 15.4201C9.33333 14.1824 9.825 12.9954 10.7002 12.1203C11.5753 11.2451 12.7623 10.7534 14 10.7534ZM14 12.5034C13.2265 12.5034 12.4846 12.8107 11.9376 13.3577C11.3906 13.9047 11.0833 14.6465 11.0833 15.4201C11.0833 16.1936 11.3906 16.9355 11.9376 17.4825C12.4846 18.0295 13.2265 18.3368 14 18.3368C14.7735 18.3368 15.5154 18.0295 16.0624 17.4825C16.6094 16.9355 16.9167 16.1936 16.9167 15.4201C16.9167 14.6465 16.6094 13.9047 16.0624 13.3577C15.5154 12.8107 14.7735 12.5034 14 12.5034Z" fill="white" fill-opacity="0.4"/>
</svg>
