<svg width="20" height="21" viewBox="0 0 20 21" fill="none" xmlns="http://www.w3.org/2000/svg">
<path d="M0.448387 16.4381L3.53707 13.2255C4.15228 12.5883 5.17108 12.6076 5.80772 13.27L7.36381 14.888C7.46212 14.8316 7.56388 14.7727 7.67087 14.7103C8.65352 14.144 9.99846 13.3679 11.4137 11.895C12.8332 10.4189 13.5801 9.01804 14.1263 7.99542C14.1839 7.88708 14.2391 7.78263 14.2937 7.68343L13.2493 6.5989L12.7358 6.06426C12.0982 5.40096 12.0806 4.34171 12.6944 3.70261L15.7831 0.489657C16.3969 -0.148546 17.4161 -0.129185 18.0537 0.534116L18.9242 1.44463L18.9005 1.46919C19.1923 1.85654 19.4363 2.30328 19.6178 2.78504C19.7851 3.24361 19.8893 3.68121 19.9369 4.11971C20.3447 7.63604 18.7997 10.8497 14.6066 15.2106C8.81044 21.2381 4.13952 20.7828 3.93802 20.7606C3.49915 20.706 3.07855 20.597 2.65112 20.4243C2.19191 20.2378 1.76264 19.9844 1.39042 19.6815L1.3714 19.6991L0.489527 18.801C-0.146769 18.1378 -0.165098 17.0782 0.448387 16.4381Z" fill="#FEFEFE"/>
</svg>
