<svg width="75" height="75" viewBox="0 0 75 75" fill="none" xmlns="http://www.w3.org/2000/svg">
<g clip-path="url(#clip0)">
<path d="M19.7114 22.442L21.1572 19.9438L23.1204 21.0756C23.1207 21.0758 23.121 21.076 23.1214 21.0762C24.1963 21.6994 25.5611 21.5765 26.5071 20.7663C27.4668 19.9512 28.5397 19.3301 29.6989 18.9161C30.8729 18.4995 31.6565 17.3908 31.6565 16.1464V13.8979H34.5512V16.1465C34.5512 17.391 35.3349 18.4998 36.509 18.9163C37.6682 19.3304 38.7411 19.9515 39.7008 20.7667C40.6487 21.5764 42.0087 21.6996 43.086 21.0765C43.0862 21.0764 43.0864 21.0763 43.0866 21.0762L45.0505 19.9439L46.4963 22.4422L44.5726 23.5502L44.572 23.5506C43.494 24.1728 42.9194 25.4072 43.1473 26.6336L19.7114 22.442ZM19.7114 22.442L21.6351 23.5501L21.6357 23.5504C22.7136 24.1726 23.2882 25.4068 23.0604 26.6331C22.9451 27.2559 22.867 27.8684 22.867 28.4891C22.867 29.1096 22.945 29.7219 23.0603 30.3447L19.7114 22.442ZM46.4963 34.5363L45.0505 37.0346L43.0855 35.9017L43.0852 35.9016C42.0099 35.2822 40.65 35.401 39.7009 36.2118C38.7413 37.0269 37.6685 37.648 36.5093 38.0621C36.5089 38.0622 36.5086 38.0624 36.5082 38.0625L46.4963 34.5363ZM46.4963 34.5363L44.5726 33.4283L44.572 33.428C43.4939 32.8057 42.9194 31.5712 43.1474 30.3448C43.2627 29.7222 43.3407 29.1098 43.3407 28.4893C43.3407 27.8687 43.2627 27.2565 43.1474 26.6337L46.4963 34.5363ZM34.5512 43.0804H31.6565V40.8298C31.6565 39.5847 30.8699 38.4737 29.6957 38.0575L29.6955 38.0575C28.5398 37.6481 27.4673 37.0275 26.5073 36.2122C25.5599 35.4007 24.1949 35.2822 23.1217 35.902L21.1572 37.0346L19.7114 34.5363L21.6351 33.4281L21.6357 33.4278C22.7137 32.8056 23.2883 31.5711 23.0604 30.3448C23.0604 30.3449 23.0604 30.345 23.0604 30.3452L34.5512 43.0804ZM40.4457 28.4893C40.4457 24.4477 37.1511 21.1644 33.1037 21.1644C29.0564 21.1644 25.7617 24.4477 25.7617 28.4893C25.7617 32.5308 29.0564 35.8141 33.1037 35.8141C37.1511 35.8141 40.4457 32.5308 40.4457 28.4893Z" stroke="#E9AA09" stroke-width="1.5"/>
<path d="M34.5508 28.4892C34.5508 29.2822 33.9035 29.9307 33.1035 29.9307C32.3036 29.9307 31.6562 29.2822 31.6562 28.4892C31.6562 27.6961 32.3036 27.0476 33.1035 27.0476C33.9035 27.0476 34.5508 27.6961 34.5508 28.4892Z" stroke="#E9AA09" stroke-width="1.5"/>
<path d="M14.0776 49.0079V48.6875L13.8461 48.466C6.887 41.8064 3.9145 32.2346 5.89084 22.6458L5.89085 22.6458C8.06204 12.1052 16.6116 3.54852 27.1552 1.36411C44.8203 -2.28579 60.6002 10.8418 60.9149 27.9766L60.918 28.1468L60.9943 28.2989L69.5562 45.378L69.5566 45.3789C69.7803 45.8237 69.7567 46.3531 69.4929 46.7781C69.2282 47.2045 68.7629 47.4638 68.2611 47.4638H61.669H60.919V48.2138V59.1719C60.919 62.3813 58.2996 64.9967 55.077 64.9967H44.0903H43.3403V65.7467V72.6138C43.3403 73.4091 42.6952 74.0554 41.893 74.0554H15.5249C14.7228 74.0554 14.0776 73.4091 14.0776 72.6138V49.0079ZM14.2107 26.0678L14.2107 26.0678L16.9971 27.6729C16.9811 27.9418 16.9723 28.2141 16.9723 28.4892C16.9723 28.7644 16.9812 29.0368 16.9971 29.3055L14.2107 30.9107C12.801 31.7226 12.3154 33.5215 13.1313 34.9304C13.1313 34.9305 13.1313 34.9306 13.1314 34.9306L17.5259 42.5241L17.5264 42.5248C18.3539 43.9511 20.1544 44.3917 21.5465 43.6037L21.5515 43.6008L24.3948 41.9626C24.8377 42.2489 25.2937 42.5132 25.7616 42.7544V46.0222C25.7616 47.6496 27.0821 48.9638 28.709 48.9638H37.4983C39.1252 48.9638 40.4457 47.6496 40.4457 46.0222V42.7544C40.9136 42.5133 41.3696 42.249 41.8125 41.9626L44.6558 43.6009L44.6607 43.6036C46.0549 44.393 47.8548 43.9486 48.6809 42.5248L48.6813 42.5241L53.0759 34.9306C53.0759 34.9306 53.076 34.9305 53.076 34.9304C53.8919 33.5214 53.4063 31.7228 51.9966 30.9107L51.6222 31.5606L51.9966 30.9107L49.2102 29.3055C49.2262 29.0367 49.235 28.7644 49.235 28.4892C49.235 28.214 49.2261 27.9417 49.2101 27.673L51.9965 26.0678C51.9966 26.0678 51.9966 26.0678 51.9966 26.0678C53.4063 25.2558 53.8918 23.457 53.076 22.0481C53.076 22.048 53.0759 22.0479 53.0759 22.0479L48.6813 14.4544L48.6809 14.4537C47.8549 13.0301 46.0512 12.5815 44.6586 13.3761L44.6558 13.3776L41.8125 15.0159C41.3696 14.7296 40.9136 14.4653 40.4457 14.2241V10.9563C40.4457 9.32888 39.1252 8.0147 37.4983 8.0147H28.709C27.0821 8.0147 25.7616 9.32888 25.7616 10.9563V14.2241C25.2937 14.4652 24.8377 14.7295 24.3948 15.0159L21.5515 13.3776L21.5489 13.3762C20.1427 12.5734 18.3448 13.0426 17.5263 14.4538L17.5259 14.4544L13.1314 22.0479C13.1313 22.0479 13.1313 22.048 13.1313 22.0481C12.3154 23.4571 12.801 25.2557 14.2107 26.0678Z" stroke="#E9AA09" stroke-width="1.5"/>
</g>
<defs>
<clipPath id="clip0">
<rect y="0.000732422" width="75" height="74.8047" fill="white"/>
</clipPath>
</defs>
</svg>
