<svg width="23" height="23" viewBox="0 0 23 23" fill="none" xmlns="http://www.w3.org/2000/svg">
<path d="M10.0676 13.6544L13.8084 11.5L10.0676 9.34546V13.6544Z" fill="white" fill-opacity="0.7"/>
<path d="M11.5 0C5.1497 0 0 5.1497 0 11.5C0 17.8503 5.1497 23 11.5 23C17.8503 23 23 17.8503 23 11.5C23 5.1497 17.8503 0 11.5 0ZM18.6857 11.5118C18.6857 11.5118 18.6857 13.844 18.3899 14.9686C18.2241 15.5842 17.7387 16.0696 17.1231 16.2352C15.9985 16.5312 11.5 16.5312 11.5 16.5312C11.5 16.5312 7.01325 16.5312 5.87687 16.2235C5.2613 16.0578 4.77593 15.5723 4.61011 14.9567C4.31408 13.844 4.31408 11.5 4.31408 11.5C4.31408 11.5 4.31408 9.16792 4.61011 8.0433C4.77576 7.42773 5.27306 6.93043 5.87687 6.76478C7.0015 6.46875 11.5 6.46875 11.5 6.46875C11.5 6.46875 15.9985 6.46875 17.1231 6.77654C17.7387 6.94218 18.2241 7.42773 18.3899 8.0433C18.6977 9.16792 18.6857 11.5118 18.6857 11.5118Z" fill="white" fill-opacity="0.7"/>
</svg>
